<svg width="30" height="25" xmlns="http://www.w3.org/2000/svg" xmlns:xlink="http://www.w3.org/1999/xlink" xml:space="preserve" overflow="hidden"><g transform="translate(-625 -347)"><path d="M652.506 361.713 654.968 351.557C655.146 350.823 654.552 350.125 653.75 350.125L633.292 350.125 632.815 347.937C632.696 347.392 632.184 347 631.59 347L626.25 347C625.56 347 625 347.525 625 348.172L625 348.953C625 349.6 625.56 350.125 626.25 350.125L629.89 350.125 633.548 366.894C632.673 367.366 632.083 368.251 632.083 369.266 632.083 370.776 633.389 372 635 372 636.611 372 637.917 370.776 637.917 369.266 637.917 368.5 637.581 367.809 637.04 367.312L647.959 367.312C647.419 367.809 647.083 368.5 647.083 369.266 647.083 370.776 648.389 372 650 372 651.611 372 652.917 370.776 652.917 369.266 652.917 368.183 652.245 367.247 651.272 366.804L651.559 365.619C651.737 364.886 651.143 364.188 650.34 364.188L636.36 364.188 636.019 362.625 651.287 362.625C651.871 362.625 652.377 362.246 652.506 361.713Z" fill="#F2F2F2"/></g></svg>